<svg id="Layer_1" data-name="Layer 1" xmlns="http://www.w3.org/2000/svg" viewBox="0 0 981.8 179.23"><defs><style>.cls-1{fill:#ecbea5;}</style></defs><path class="cls-1" d="M199.79,540.56l1-.07,8-.86L224.16,538l25.33-2.74,12.95-1.43,2.29-.24a3.75,3.75,0,0,1,.58,0,1.08,1.08,0,0,1,.94,1.49c-.13.31-.32.6-.48.9l-6.51,11.49L236,588.55c-.19.33-.37.67-.58,1a1,1,0,0,1-1,.48,1.1,1.1,0,0,1-1-.67.64.64,0,0,1,0-.43,4.43,4.43,0,0,1,.36-.84c.53-1,1.08-1.91,1.62-2.87l8.4-14.87c.12-.2.22-.4.34-.6.39-.65.2-.76-.5-.77a7.6,7.6,0,0,0-7.86,6.68,7.38,7.38,0,0,0,.78,4.3,7.61,7.61,0,0,1,.4.81,1.12,1.12,0,0,1-1,1.47.77.77,0,0,1-.63-.22,2.25,2.25,0,0,1-.35-.45,9.65,9.65,0,0,1,4.8-14.07,10,10,0,0,1,4.87-.62l.57.07a.59.59,0,0,0,.68-.3c.1-.21.23-.4.34-.6q8.2-14.52,16.43-29c.14-.26.27-.54.39-.81,0,0-.06-.14-.11-.17a.35.35,0,0,0-.23,0l-.68,0-18.23,2-15.59,1.67c-.38,0-.76.08-1.14.14a1.12,1.12,0,0,0-.33.14c0,.37-.1.75-.13,1.12a10.49,10.49,0,0,1-6.74,8.89,10.91,10.91,0,0,1-11.8-2.49,11.5,11.5,0,0,1-1.08-1.32,1,1,0,0,1,.25-1.33,1.1,1.1,0,0,1,1.29-.05,2.43,2.43,0,0,1,.34.3c.18.2.34.41.51.61a8.47,8.47,0,0,0,5.94,2.89,8.59,8.59,0,0,0,8.84-6.22c.11-.4.19-.81.26-1.22a2.6,2.6,0,0,0,0-.56c0-.28-.16-.45-.41-.43s-.54,0-.81.06c-.95.11-1.9.23-2.86.33l-17,1.82-2.64.29a1.83,1.83,0,0,0-.56.13.47.47,0,0,0-.2.25.73.73,0,0,0,0,.33c0,1.33,0,2.65,0,4a15.48,15.48,0,0,0,.18,2.72c.21,1.46.51,2.9.85,4.34s.71,2.7,1.13,4a53.78,53.78,0,0,0,6.42,13.14c.7,1,1.44,2,2.2,3a46.63,46.63,0,0,0,3.51,4.06c.88.9,1.79,1.77,2.71,2.62a55.58,55.58,0,0,0,9.53,6.94,17.42,17.42,0,0,0,2.41,1.09l3,1.18a8.86,8.86,0,0,1,1.83,1,8,8,0,0,1,1.08.84A3.93,3.93,0,0,1,236,595.6a7.44,7.44,0,0,1-.56,2.31,5.26,5.26,0,0,1-5.4,3.28,22.13,22.13,0,0,1-3.52-.6,42.3,42.3,0,0,1-14.83-6.83,52.45,52.45,0,0,1-11.07-10.69,60.41,60.41,0,0,1-10.43-20.69c-.4-1.46-.76-2.93-1-4.41a43.54,43.54,0,0,1-.84-7.1v-.22a1.11,1.11,0,0,1,1.53-1,.71.71,0,0,1,.53.55,10.38,10.38,0,0,1,.14,1.12c.11,1.62.28,3.24.5,4.85a48.92,48.92,0,0,0,1.06,5.23,54.31,54.31,0,0,0,2.54,7.4,52.56,52.56,0,0,0,6.07,10.66,54,54,0,0,0,7.78,8.5,49.13,49.13,0,0,0,7.29,5.35,73.72,73.72,0,0,0,7.42,3.89,22.36,22.36,0,0,0,3.56,1.32,8.81,8.81,0,0,0,3.31.26,7,7,0,0,0,1.56-.41,3.29,3.29,0,0,0,1.22-.82,2,2,0,0,0,.59-1.32,2.12,2.12,0,0,0-.07-.67,3.29,3.29,0,0,0-.84-1.47,5.81,5.81,0,0,0-1.71-1.32c-.59-.29-1.16-.6-1.77-.83a34.34,34.34,0,0,1-4.59-2.37,57.09,57.09,0,0,1-12.82-10.46,56.33,56.33,0,0,1-5.18-6.66A54.35,54.35,0,0,1,202.8,566c-.7-1.47-1.35-3-1.92-4.49-.67-1.81-1.25-3.65-1.76-5.51-.33-1.21-.55-2.44-.81-3.66a18,18,0,0,1-.32-4c0-1,0-2,0-3.06a7.69,7.69,0,0,0-.43-2.56,5.55,5.55,0,0,0-1.89-2.52,3.18,3.18,0,0,0-1-.52,2.19,2.19,0,0,0-2.07.33,3.94,3.94,0,0,0-1.5,2.23,14.94,14.94,0,0,0-.45,2.91c0,.53,0,1.06-.08,1.59a.92.92,0,0,1-1.12.85,1.11,1.11,0,0,1-1-1.07c0-.49,0-1,.08-1.47a23.27,23.27,0,0,1,.55-3.7,6.57,6.57,0,0,1,1-2.27,4.16,4.16,0,0,1,2.51-1.7,8.85,8.85,0,0,1,3.55-.13,4.08,4.08,0,0,1,3.24,2.45c.11.24.22.48.34.71C199.69,540.47,199.73,540.5,199.79,540.56Z" transform="translate(-49.24 -450.73)"/><path class="cls-1" d="M228.06,570a6,6,0,0,1-4.24-1.12,7,7,0,0,1-3.08-5.7,6.28,6.28,0,0,1,1.79-4.54,1.06,1.06,0,0,1,1.05-.31,1.1,1.1,0,0,1,.86.82.94.94,0,0,1,0,.44,1.75,1.75,0,0,1-.22.4c-.13.19-.28.36-.41.55a4.78,4.78,0,0,0,.52,6,4.1,4.1,0,0,0,4.42,1.12,4.72,4.72,0,0,0,2.76-2.11,3.87,3.87,0,0,0,.44-2.84,4.8,4.8,0,0,0-1.93-3,4.58,4.58,0,0,0-2.46-.89c-.42,0-.84,0-1.26,0a.88.88,0,0,1-.82-.53,1.06,1.06,0,0,1,.77-1.57,6.53,6.53,0,0,1,5.63,1.71,6.68,6.68,0,0,1,2.16,3.79,6,6,0,0,1-2.2,6.2,7.4,7.4,0,0,1-2.4,1.32A6.23,6.23,0,0,1,228.06,570Z" transform="translate(-49.24 -450.73)"/><path class="cls-1" d="M253.59,546.09a5.88,5.88,0,0,1-.13,2.25,1.05,1.05,0,0,1-1.12.78,1,1,0,0,1-1-1c0-.26,0-.52.08-.79a4.86,4.86,0,0,0-5-5.19,3.84,3.84,0,0,0-2.25.77,4.5,4.5,0,0,0-1.88,4.37,4.19,4.19,0,0,0,1.93,3,4.59,4.59,0,0,0,4.8.39c.17-.08.34-.17.52-.24a1.15,1.15,0,0,1,1.55.89.83.83,0,0,1-.24.73,2.59,2.59,0,0,1-.85.57,6.56,6.56,0,0,1-3.7.58,7,7,0,0,1-5.82-4.25,5.56,5.56,0,0,1-.39-3.11,6.77,6.77,0,0,1,2.72-4.58,6,6,0,0,1,4.79-1.14,7.09,7.09,0,0,1,5.6,4.38A5.89,5.89,0,0,1,253.59,546.09Z" transform="translate(-49.24 -450.73)"/><path class="cls-1" d="M215.81,560a5,5,0,0,1-1.43,4,4.57,4.57,0,0,1-4.42,1.35,5.26,5.26,0,0,1-4-3.23,4.61,4.61,0,0,1-.16-3,1.13,1.13,0,0,1,1.43-.81.92.92,0,0,1,.74,1c0,.23-.07.45-.09.68a3,3,0,0,0,1.19,2.69,2.82,2.82,0,1,0,3.18-4.64,2.86,2.86,0,0,0-2.65-.25c-.22.08-.42.19-.64.27a1.11,1.11,0,0,1-1.25-.32,1.24,1.24,0,0,1-.14-.18.82.82,0,0,1,.18-1.2,5.83,5.83,0,0,1,1-.55,5.21,5.21,0,0,1,6,1.54A4.8,4.8,0,0,1,215.81,560Z" transform="translate(-49.24 -450.73)"/><path class="cls-1" d="M231.32,546.84a6.55,6.55,0,0,1,3.61,1,6.47,6.47,0,0,1,2.48,2.47,4.71,4.71,0,0,1,.09,4.56,1,1,0,0,1-1,.57,1.13,1.13,0,0,1-1-.83.73.73,0,0,1,0-.33c.08-.29.17-.58.26-.86a2.64,2.64,0,0,0-.27-2.19,4.49,4.49,0,0,0-4.27-2.13,3.05,3.05,0,0,0-2,1c-.15.17-.27.37-.43.53a.78.78,0,0,1-.74.21,1.26,1.26,0,0,1-.94-1,.8.8,0,0,1,0-.34,2.84,2.84,0,0,1,.29-.61A5,5,0,0,1,231.32,546.84Z" transform="translate(-49.24 -450.73)"/><path class="cls-1" d="M223.94,581.35a5.43,5.43,0,0,1-3.85-1.19,6.71,6.71,0,0,1-2.61-4.14,4.89,4.89,0,0,1,2-5.08,1,1,0,0,1,1.34.18,1,1,0,0,1,.1,1.35c-.15.17-.31.33-.47.49a2.81,2.81,0,0,0-.84,2.48,4.48,4.48,0,0,0,2,3.27,3.19,3.19,0,0,0,1.27.5,2.31,2.31,0,0,0,1.35-.11c.21-.09.42-.19.64-.27a1.15,1.15,0,0,1,1.34.34,1.38,1.38,0,0,1,.19.28.76.76,0,0,1-.12.94,2.22,2.22,0,0,1-.45.34A4.61,4.61,0,0,1,223.94,581.35Z" transform="translate(-49.24 -450.73)"/><path class="cls-1" d="M296.44,593.2c-.14-.27-.31-.56-.46-.86-1.18-2.38-2.35-4.77-3.52-7.15q-3.36-6.84-6.71-13.69-5.53-11.28-11.08-22.57L269,537.38c-.33-.68-.67-1.36-1-2a3,3,0,0,0-.29-.49,1.11,1.11,0,0,0-1.78,0c-.19.27-.35.58-.52.88L259,547.26l-23.12,41.22c-.18.33-.37.66-.53,1a1,1,0,0,0,.11,1.07,1.1,1.1,0,0,0,1.1.47.7.7,0,0,0,.39-.2,4.76,4.76,0,0,0,.53-.74c.55-1,1.08-1.92,1.62-2.88l8.35-14.9.34-.59c.36-.68.55-.57.93,0a7.43,7.43,0,0,1-1.59,10.09,7.61,7.61,0,0,1-4.11,1.63,7,7,0,0,0-.92.1,1.12,1.12,0,0,0-.74,1.61.76.76,0,0,0,.53.41,2.16,2.16,0,0,0,.57.05A9.69,9.69,0,0,0,250,569.75l-.36-.44a.54.54,0,0,1-.1-.72c.12-.2.22-.4.33-.6l16.31-29.11a7,7,0,0,1,.49-.76s.15,0,.21,0a.34.34,0,0,1,.14.17c.11.19.22.4.32.6q4,8.11,8,16.24,3.41,6.95,6.83,13.88c.17.34.33.68.49,1a1.63,1.63,0,0,1,0,.35c-.3.24-.59.48-.9.7a10.41,10.41,0,0,0-4.09,10.34,10.69,10.69,0,0,0,8.41,8.51,12.29,12.29,0,0,0,1.71.21,1.05,1.05,0,0,0,.38-2,2.4,2.4,0,0,0-.44-.12c-.27,0-.54-.07-.8-.11a8.43,8.43,0,0,1-5-14.09,12.45,12.45,0,0,1,.91-.86,3,3,0,0,1,.47-.32.38.38,0,0,1,.59.11c.13.23.25.47.37.71.41.85.82,1.71,1.24,2.56q3.71,7.56,7.43,15.11c.39.78.77,1.56,1.15,2.35a1.86,1.86,0,0,1,.19.53.53.53,0,0,1-.11.3,1.39,1.39,0,0,1-.27.21c-1.17.66-2.27,1.42-3.4,2.14a18.32,18.32,0,0,1-2.44,1.29c-1.37.6-2.77,1.11-4.19,1.59s-2.71.84-4.08,1.2a52.39,52.39,0,0,1-6.57,1.22,53,53,0,0,1-8.16.4c-1.27,0-2.54-.11-3.8-.21a46.14,46.14,0,0,1-5.36-.78c-1.24-.25-2.48-.54-3.7-.87a55.77,55.77,0,0,1-11-4.26,16.67,16.67,0,0,1-2.21-1.43c-.87-.62-1.73-1.25-2.61-1.87a9.52,9.52,0,0,0-3.09-1.46,4.06,4.06,0,0,0-3.49.71,7.18,7.18,0,0,0-1.7,1.69,5.1,5.1,0,0,0,0,6.24,21,21,0,0,0,2.38,2.61,42,42,0,0,0,13.76,8.75A53.85,53.85,0,0,0,259.34,615a62.66,62.66,0,0,0,13.69-.26,61.45,61.45,0,0,0,9.68-2c1.47-.44,2.93-.92,4.36-1.47a44,44,0,0,0,6.56-3.06l.2-.12a1.1,1.1,0,0,0,.08-1.83.76.76,0,0,0-.76-.15c-.35.14-.7.31-1,.48q-2.19,1.15-4.45,2.16a45.88,45.88,0,0,1-5.06,1.88,55.09,55.09,0,0,1-31.59.44,51.42,51.42,0,0,1-8.48-3.23,76.76,76.76,0,0,1-7.29-4.13,21.67,21.67,0,0,1-3-2.27,8.33,8.33,0,0,1-2-2.62,6.32,6.32,0,0,1-.48-1.51,3.27,3.27,0,0,1,.06-1.46,2,2,0,0,1,.83-1.19,2.17,2.17,0,0,1,.61-.3,3.42,3.42,0,0,1,1.71-.08A5.79,5.79,0,0,1,235,595c.56.33,1.13.65,1.65,1a33.71,33.71,0,0,0,4.48,2.57,56,56,0,0,0,8.21,3.29,55.13,55.13,0,0,0,7.61,1.84,57.52,57.52,0,0,0,8.49.79,54.88,54.88,0,0,0,7.47-.36c1.64-.2,3.28-.44,4.89-.78,1.92-.4,3.81-.89,5.69-1.45,1.22-.37,2.39-.84,3.58-1.27a19.09,19.09,0,0,0,3.57-1.83c.88-.54,1.76-1.09,2.65-1.62a8.16,8.16,0,0,1,2.44-1,5.71,5.71,0,0,1,3.17.24,3.5,3.5,0,0,1,1,.57,2.19,2.19,0,0,1,.82,1.91,4,4,0,0,1-1.14,2.43,15.39,15.39,0,0,1-2.26,1.92c-.45.3-.9.59-1.33.91a.91.91,0,0,0-.14,1.39,1.14,1.14,0,0,0,1.45.26,14.92,14.92,0,0,0,1.23-.85,23.82,23.82,0,0,0,2.89-2.41,7.06,7.06,0,0,0,1.44-2,4.07,4.07,0,0,0,.13-3,8.6,8.6,0,0,0-1.78-3,4.1,4.1,0,0,0-3.82-1.4c-.26,0-.53.07-.8.09C296.57,593.24,296.53,593.22,296.44,593.2Z" transform="translate(-49.24 -450.73)"/><path class="cls-1" d="M256.06,585.26a5.91,5.91,0,0,0,3.22,2.94,7.2,7.2,0,0,0,6.54-.46,6.32,6.32,0,0,0,3-3.89,1,1,0,0,0-.28-1.05,1.1,1.1,0,0,0-1.17-.27.81.81,0,0,0-.36.25,1.74,1.74,0,0,0-.23.4c-.09.2-.16.42-.26.63a4.93,4.93,0,0,1-5.41,2.73,4,4,0,0,1-3.32-3.09,4.51,4.51,0,0,1,.36-3.41,3.9,3.9,0,0,1,2.22-1.88,5,5,0,0,1,3.6,0,4.55,4.55,0,0,1,2.06,1.58c.24.34.44.71.67,1a.91.91,0,0,0,.9.41,1.07,1.07,0,0,0,.94-1.48A6.43,6.43,0,0,0,264,576a7,7,0,0,0-4.42.21,6.14,6.14,0,0,0-4.17,5.12,7,7,0,0,0,.14,2.7A5.78,5.78,0,0,0,256.06,585.26Z" transform="translate(-49.24 -450.73)"/><path class="cls-1" d="M263.13,551.29a6.07,6.07,0,0,0-1.87,1.29,1,1,0,0,0-.08,1.36,1,1,0,0,0,1.42.28c.22-.14.42-.32.64-.48a5,5,0,0,1,7.11,1.4,3.65,3.65,0,0,1,.53,2.28,4.56,4.56,0,0,1-2.76,3.89,4.3,4.3,0,0,1-3.58,0,4.47,4.47,0,0,1-2.89-3.79c0-.18,0-.37-.07-.56a1.15,1.15,0,0,0-1.59-.82.83.83,0,0,0-.5.58,2.51,2.51,0,0,0,0,1,6.28,6.28,0,0,0,1.46,3.39,7.12,7.12,0,0,0,6.75,2.59,5.77,5.77,0,0,0,2.89-1.32,6.84,6.84,0,0,0,2.51-4.7,5.76,5.76,0,0,0-1.56-4.59,7.2,7.2,0,0,0-6.75-2.35A5.79,5.79,0,0,0,263.13,551.29Z" transform="translate(-49.24 -450.73)"/><path class="cls-1" d="M271.2,590.15a5.1,5.1,0,0,0-2.7,3.33,4.38,4.38,0,0,0,1.18,4.4,5.32,5.32,0,0,0,4.92,1.63,4.72,4.72,0,0,0,2.67-1.46,1.09,1.09,0,0,0-.06-1.62,1,1,0,0,0-1.26-.08l-.53.43a3.13,3.13,0,0,1-2.95.44,2.64,2.64,0,0,1-1.74-3.54,2.83,2.83,0,0,1,4-1.57,2.79,2.79,0,0,1,1.62,2.07c0,.23.06.45.11.68a1.08,1.08,0,0,0,.93.87.9.9,0,0,0,.23,0,.84.84,0,0,0,.94-.79,4.77,4.77,0,0,0-.06-1.13,5.14,5.14,0,0,0-4.53-4.21A5.06,5.06,0,0,0,271.2,590.15Z" transform="translate(-49.24 -450.73)"/><path class="cls-1" d="M274.3,570.25a6.5,6.5,0,0,0-2.79-2.48,6.7,6.7,0,0,0-3.44-.75,4.86,4.86,0,0,0-4,2.34.93.93,0,0,0,.06,1.16,1.14,1.14,0,0,0,1.23.39.67.67,0,0,0,.3-.16c.21-.22.41-.45.61-.68a2.73,2.73,0,0,1,2-.93,4.5,4.5,0,0,1,4.11,2.43,3,3,0,0,1,.16,2.2c-.07.21-.18.42-.23.64a.73.73,0,0,0,.22.72,1.26,1.26,0,0,0,1.38.24.79.79,0,0,0,.27-.21,2.86,2.86,0,0,0,.37-.56A4.88,4.88,0,0,0,274.3,570.25Z" transform="translate(-49.24 -450.73)"/><path class="cls-1" d="M248.48,594.71a5.28,5.28,0,0,0,3.06,2.58,7,7,0,0,0,5,0,5,5,0,0,0,3.3-4.38,1,1,0,0,0-.87-1,1.06,1.06,0,0,0-1.21.63c-.07.22-.12.44-.18.66a2.87,2.87,0,0,1-1.69,2,4.66,4.66,0,0,1-3.9.05,3.19,3.19,0,0,1-1.1-.79,2.33,2.33,0,0,1-.62-1.19c0-.23-.07-.45-.11-.67a1.13,1.13,0,0,0-1-.95,1.93,1.93,0,0,0-.34,0,.78.78,0,0,0-.75.6,2.6,2.6,0,0,0-.06.56A4.46,4.46,0,0,0,248.48,594.71Z" transform="translate(-49.24 -450.73)"/><path class="cls-1" d="M282.16,468.82c-.08.29-.18.61-.26.94q-.9,3.87-1.79,7.74l-3.39,14.83q-2.82,12.23-5.62,24.44c-1,4.17-1.9,8.34-2.85,12.51-.17.74-.34,1.47-.52,2.21a2.6,2.6,0,0,1-.17.54,1.1,1.1,0,0,1-1.73.39,10,10,0,0,1-.71-.74l-8.93-9.8-32-35c-.26-.28-.52-.56-.75-.86a1,1,0,0,1-.14-1.07,1.09,1.09,0,0,1,1-.7.66.66,0,0,1,.43.11,4.79,4.79,0,0,1,.68.6l2.24,2.44,11.55,12.67.46.5c.51.58.67.43.91-.21a7.45,7.45,0,0,0-3.87-9.48,7.56,7.56,0,0,0-4.37-.68c-.31,0-.61.1-.92.11a1.13,1.13,0,0,1-1.09-1.41.77.77,0,0,1,.42-.51,2.63,2.63,0,0,1,.54-.18,9.85,9.85,0,0,1,12,9.06,9.44,9.44,0,0,1-1,4.72c-.08.17-.17.34-.26.51a.57.57,0,0,0,.08.73c.16.16.3.34.45.51l22.56,24.73a8,8,0,0,0,.66.64.27.27,0,0,0,.2-.05.47.47,0,0,0,.1-.2c.06-.22.12-.44.17-.66q2-8.79,4-17.59l3.48-15c.08-.37.17-.73.24-1.11a1.63,1.63,0,0,0,0-.35c-.34-.16-.68-.34-1-.48a10.56,10.56,0,0,1-.12-19.33,15,15,0,0,1,1.63-.58,1.05,1.05,0,0,1,1.19.67,1,1,0,0,1-.37,1.21,1.56,1.56,0,0,1-.4.22c-.24.11-.5.18-.75.28a8.4,8.4,0,0,0-1.61,14.83c.35.23.71.44,1.08.64a3.55,3.55,0,0,0,.54.21.39.39,0,0,0,.55-.24c.07-.26.14-.51.19-.77.21-.93.41-1.85.62-2.77l3.78-16.37c.2-.85.4-1.69.59-2.54a2.16,2.16,0,0,0,.05-.56.4.4,0,0,0-.18-.27.8.8,0,0,0-.31-.14c-1.28-.39-2.53-.89-3.8-1.34a18.61,18.61,0,0,0-2.66-.71c-1.48-.28-3-.47-4.45-.63s-2.84-.22-4.26-.26a55,55,0,0,0-6.67.27,53.41,53.41,0,0,0-8.05,1.42c-1.23.31-2.45.67-3.65,1a48.22,48.22,0,0,0-5,1.94c-1.15.53-2.28,1.08-3.4,1.67a56.29,56.29,0,0,0-9.78,6.6A17,17,0,0,0,225.8,480l-2.11,2.4a9.09,9.09,0,0,1-1.52,1.39,8.81,8.81,0,0,1-1.17.73,4.08,4.08,0,0,1-3.56.08,7.84,7.84,0,0,1-2-1.27,5.1,5.1,0,0,1-1.39-6.09,20.67,20.67,0,0,1,1.72-3.08,41.54,41.54,0,0,1,11.39-11.57A53.69,53.69,0,0,1,241,455.77,61.67,61.67,0,0,1,254.4,453a60.59,60.59,0,0,1,9.9-.17c1.53.1,3.06.24,4.58.46a43.89,43.89,0,0,1,7.09,1.53l.22.07a1.1,1.1,0,0,1,.5,1.76.73.73,0,0,1-.7.32,8.59,8.59,0,0,1-1.12-.24q-2.4-.63-4.83-1.11a48.75,48.75,0,0,0-5.37-.72,55.51,55.51,0,0,0-7.95-.05,54.87,54.87,0,0,0-22.92,6.63,50.1,50.1,0,0,0-7.52,5,71.48,71.48,0,0,0-6.16,5.64A21.37,21.37,0,0,0,217.7,475a8.34,8.34,0,0,0-1.33,3,6,6,0,0,0-.12,1.58,3.39,3.39,0,0,0,.39,1.41,2,2,0,0,0,1.08,1,2.52,2.52,0,0,0,.67.16,3.49,3.49,0,0,0,1.68-.3,6.08,6.08,0,0,0,1.83-1.17c.46-.45.95-.88,1.37-1.37a32.12,32.12,0,0,1,3.78-3.5,56,56,0,0,1,7.24-5,56.87,56.87,0,0,1,7-3.48,56.21,56.21,0,0,1,8.09-2.64,52.41,52.41,0,0,1,7.37-1.31c1.64-.18,3.29-.3,4.94-.33q2.94,0,5.87.16c1.27.08,2.52.28,3.78.43a19.42,19.42,0,0,1,3.9,1c1,.33,2,.67,2.95,1a7.93,7.93,0,0,0,2.6.44,5.65,5.65,0,0,0,3-.94,3.2,3.2,0,0,0,.83-.77,2.11,2.11,0,0,0,.36-2,3.93,3.93,0,0,0-1.66-2.12,14.41,14.41,0,0,0-2.65-1.36l-1.5-.6a.9.9,0,0,1-.45-1.32,1.12,1.12,0,0,1,1.35-.58c.47.16.93.36,1.39.56a23.17,23.17,0,0,1,3.37,1.71,6.8,6.8,0,0,1,1.87,1.67,4.09,4.09,0,0,1,.82,2.88,8.57,8.57,0,0,1-1,3.34,4.11,4.11,0,0,1-3.4,2.22l-.8.08S282.24,468.78,282.16,468.82Z" transform="translate(-49.24 -450.73)"/><path class="cls-1" d="M244.64,485.51a5.84,5.84,0,0,1,2.46-3.58,7.18,7.18,0,0,1,6.47-1,6.39,6.39,0,0,1,3.79,3.14,1,1,0,0,1,0,1.07,1.09,1.09,0,0,1-1.08.53.82.82,0,0,1-.41-.17,1.4,1.4,0,0,1-.31-.33c-.14-.18-.26-.38-.4-.56a5,5,0,0,0-5.9-1.46,4,4,0,0,0-2.52,3.74,4.52,4.52,0,0,0,1.13,3.25,3.91,3.91,0,0,0,2.59,1.34,5,5,0,0,0,3.5-.82,4.43,4.43,0,0,0,1.65-2c.16-.39.27-.79.42-1.18a.87.87,0,0,1,.77-.59,1.08,1.08,0,0,1,1.26,1.23,6.38,6.38,0,0,1-3.47,4.68,7,7,0,0,1-4.36.78,6.22,6.22,0,0,1-5.24-4.07,7.08,7.08,0,0,1-.48-2.66A5.55,5.55,0,0,1,244.64,485.51Z" transform="translate(-49.24 -450.73)"/><path class="cls-1" d="M259.31,517a6,6,0,0,1-2.12-.85,1,1,0,0,1-.39-1.3,1,1,0,0,1,1.32-.59c.25.09.49.22.73.32a4.91,4.91,0,0,0,6.61-2.93,3.67,3.67,0,0,0,0-2.34,4.6,4.6,0,0,0-3.59-3.18,4.34,4.34,0,0,0-3.48.83,4.41,4.41,0,0,0-1.94,4.33c0,.19.05.38.06.57a1.14,1.14,0,0,1-1.36,1.15.84.84,0,0,1-.62-.46,2.61,2.61,0,0,1-.27-1,6.25,6.25,0,0,1,.64-3.63,7.07,7.07,0,0,1,6-4,5.77,5.77,0,0,1,3.12.65,6.84,6.84,0,0,1,3.52,4,5.71,5.71,0,0,1-.47,4.82,7.09,7.09,0,0,1-6,3.78A6.19,6.19,0,0,1,259.31,517Z" transform="translate(-49.24 -450.73)"/><path class="cls-1" d="M258.27,477.39a5.2,5.2,0,0,1-3.4-2.65,4.38,4.38,0,0,1,.14-4.55,5.3,5.3,0,0,1,4.42-2.68,4.84,4.84,0,0,1,2.93.83,1.09,1.09,0,0,1,.32,1.59,1,1,0,0,1-1.21.37c-.21-.1-.41-.22-.62-.31a3.11,3.11,0,0,0-3,.23,2.63,2.63,0,0,0-.88,3.84,2.85,2.85,0,0,0,4.3.63,2.81,2.81,0,0,0,1.11-2.38c0-.23-.05-.46-.06-.68a1.12,1.12,0,0,1,.72-1.07l.21-.07a.85.85,0,0,1,1.1.57,5.28,5.28,0,0,1,.2,1.11,5.08,5.08,0,0,1-3.44,5.11A5.18,5.18,0,0,1,258.27,477.39Z" transform="translate(-49.24 -450.73)"/><path class="cls-1" d="M265.85,496.09a6.5,6.5,0,0,1-2.15,3,6.61,6.61,0,0,1-3.18,1.5,4.92,4.92,0,0,1-4.42-1.4.94.94,0,0,1-.21-1.14,1.15,1.15,0,0,1,1.12-.66.85.85,0,0,1,.32.09c.26.17.5.35.75.53a2.83,2.83,0,0,0,2.19.46,4.46,4.46,0,0,0,3.44-3.28,2.92,2.92,0,0,0-.34-2.18c-.12-.19-.27-.37-.37-.57a.74.74,0,0,1,0-.76,1.27,1.27,0,0,1,1.29-.53.68.68,0,0,1,.31.14,2.43,2.43,0,0,1,.49.47A4.87,4.87,0,0,1,265.85,496.09Z" transform="translate(-49.24 -450.73)"/><path class="cls-1" d="M235.08,478a5.28,5.28,0,0,1,2.4-3.19,7,7,0,0,1,4.83-1.08,5,5,0,0,1,4.22,3.54,1,1,0,0,1-.62,1.19,1.06,1.06,0,0,1-1.32-.34c-.12-.2-.21-.4-.32-.6a2.88,2.88,0,0,0-2.11-1.59,4.63,4.63,0,0,0-3.81.82,3.13,3.13,0,0,0-.89,1,2.27,2.27,0,0,0-.33,1.29c0,.23,0,.45.05.68a1.12,1.12,0,0,1-.76,1.14l-.33.09a.81.81,0,0,1-.87-.42A2.07,2.07,0,0,1,235,480,4.31,4.31,0,0,1,235.08,478Z" transform="translate(-49.24 -450.73)"/><path class="cls-1" d="M200.06,541.54c.31,0,.65-.11,1-.15l8-.94,15.35-1.78,25.3-2.95,12.94-1.48,2.29-.28a2.64,2.64,0,0,0,.56-.11,1.06,1.06,0,0,0,.58-1.65,8.15,8.15,0,0,0-.68-.77l-9-9.76-32.09-34.92c-.25-.28-.51-.57-.78-.83a1,1,0,0,0-1.07-.24,1.08,1.08,0,0,0-.81.87.7.7,0,0,0,.06.43,4.92,4.92,0,0,0,.54.73c.74.82,1.49,1.63,2.24,2.44q5.8,6.32,11.6,12.62c.15.17.3.35.46.51.53.55.37.7-.31.87a7.67,7.67,0,0,1-9.18-4.77,7.3,7.3,0,0,1-.23-4.36,8.67,8.67,0,0,0,.21-.88,1.14,1.14,0,0,0-1.31-1.21.77.77,0,0,0-.57.35,2.58,2.58,0,0,0-.23.51,9.72,9.72,0,0,0,7.91,12.65,10,10,0,0,0,4.88-.47l.54-.2a.58.58,0,0,1,.72.15c.15.17.32.33.47.5q11.34,12.31,22.67,24.65c.2.22.39.46.57.7,0,0,0,.15-.07.19a.39.39,0,0,1-.21.08l-.69.1-18.2,2.12L228,536.09l-1.15.12a1.34,1.34,0,0,1-.36-.07c-.12-.35-.26-.7-.38-1.06a10.59,10.59,0,0,0-8.6-7.17,10.83,10.83,0,0,0-10.92,5,11.46,11.46,0,0,0-.76,1.53,1,1,0,0,0,.55,1.24,1.08,1.08,0,0,0,1.27-.24,2,2,0,0,0,.26-.37c.13-.23.24-.47.36-.7a8.35,8.35,0,0,1,5.13-4.13,8.64,8.64,0,0,1,10,4.09c.2.37.37.75.54,1.13a3.75,3.75,0,0,1,.15.55.37.37,0,0,1-.3.51l-.8.11-2.86.32-16.95,2-2.63.31a2.17,2.17,0,0,1-.57,0,.38.38,0,0,1-.25-.2.73.73,0,0,1-.12-.32c-.26-1.3-.63-2.57-1-3.85a17.56,17.56,0,0,1-.45-2.69c-.12-1.47-.16-2.94-.16-4.42s.07-2.79.18-4.19a51.22,51.22,0,0,1,1-6.5,50.57,50.57,0,0,1,2.26-7.72c.45-1.17.94-2.32,1.45-3.46a45.28,45.28,0,0,1,2.49-4.73c.65-1.08,1.33-2.13,2.05-3.16a55,55,0,0,1,7.68-8.88,18.09,18.09,0,0,1,2.1-1.59l2.65-1.81a9.54,9.54,0,0,0,2.42-2.4,3.92,3.92,0,0,0,.45-3.48,7.26,7.26,0,0,0-1.08-2.13,5.29,5.29,0,0,0-6-2,22,22,0,0,0-3.29,1.37,41.58,41.58,0,0,0-12.88,9.94,52,52,0,0,0-8.34,12.87A59.71,59.71,0,0,0,187,512.74a58.11,58.11,0,0,0-1.2,9.66c-.06,1.51-.08,3,0,4.54a42.32,42.32,0,0,0,.82,7.09,1.74,1.74,0,0,0,0,.22,1.12,1.12,0,0,0,1.72.68.74.74,0,0,0,.4-.66,10.67,10.67,0,0,0-.13-1.12c-.26-1.61-.47-3.22-.62-4.84a45.13,45.13,0,0,1-.16-5.33,53.26,53.26,0,0,1,.77-7.77,52.28,52.28,0,0,1,3.47-11.74,52.9,52.9,0,0,1,5.63-10,49.56,49.56,0,0,1,5.87-6.83,74.92,74.92,0,0,1,6.35-5.44,21.49,21.49,0,0,1,3.16-2.07,8.77,8.77,0,0,1,3.16-1,6.65,6.65,0,0,1,1.61.06,3.45,3.45,0,0,1,1.39.52,2,2,0,0,1,.87,1.16,2.57,2.57,0,0,1,.09.67,3.29,3.29,0,0,1-.48,1.61,5.65,5.65,0,0,1-1.37,1.67c-.5.41-1,.84-1.53,1.2a32.94,32.94,0,0,0-3.93,3.33,55.08,55.08,0,0,0-5.84,6.56,54.33,54.33,0,0,0-4.25,6.48,56.06,56.06,0,0,0-3.52,7.63,53,53,0,0,0-2.09,7.07c-.35,1.59-.64,3.19-.84,4.8q-.36,2.88-.46,5.77c0,1.24,0,2.49,0,3.74a18,18,0,0,0,.6,3.92c.23,1,.48,2,.69,3a7.8,7.8,0,0,1,.17,2.59,5.53,5.53,0,0,1-1.27,2.88,3.08,3.08,0,0,1-.87.73,2.21,2.21,0,0,1-2.1.14,4,4,0,0,1-2-1.84,14.43,14.43,0,0,1-1.11-2.74c-.14-.51-.28-1-.44-1.52a.93.93,0,0,0-1.29-.59,1.1,1.1,0,0,0-.73,1.27c.11.47.26.94.42,1.41a23.54,23.54,0,0,0,1.38,3.48,6.79,6.79,0,0,0,1.49,2,4.27,4.27,0,0,0,2.83,1.1,9,9,0,0,0,3.49-.67,4,4,0,0,0,2.59-3.1c.05-.26.11-.51.17-.77C200,541.64,200,541.62,200.06,541.54Z" transform="translate(-49.24 -450.73)"/><path class="cls-1" d="M220.85,506.58a6,6,0,0,0-3.87,2,6.89,6.89,0,0,0-1.69,6.23,6.35,6.35,0,0,0,2.78,4,1,1,0,0,0,1.09.07,1.07,1.07,0,0,0,.65-1,.8.8,0,0,0-.13-.42,1.38,1.38,0,0,0-.3-.34c-.17-.15-.36-.29-.53-.45a4.76,4.76,0,0,1-.86-5.92,4.05,4.05,0,0,1,4-2.08,4.77,4.77,0,0,1,3.17,1.44,3.88,3.88,0,0,1,1.08,2.68,4.75,4.75,0,0,1-1.2,3.34,4.5,4.5,0,0,1-2.18,1.4c-.41.12-.83.19-1.24.29a.9.9,0,0,0-.68.69,1.08,1.08,0,0,0,1.12,1.36A6.48,6.48,0,0,0,227.2,517a6.65,6.65,0,0,0,1.24-4.17,6.11,6.11,0,0,0-3.56-5.55,7.56,7.56,0,0,0-2.65-.76A6.37,6.37,0,0,0,220.85,506.58Z" transform="translate(-49.24 -450.73)"/><path class="cls-1" d="M251.21,524.22a6.06,6.06,0,0,0-.64-2.16,1.09,1.09,0,0,0-1.28-.52,1,1,0,0,0-.73,1.23c.07.25.17.5.25.75a4.8,4.8,0,0,1-3.66,6.16,3.82,3.82,0,0,1-2.36-.25,4.56,4.56,0,0,1-2.84-3.84,4.17,4.17,0,0,1,1.2-3.32,4.59,4.59,0,0,1,4.58-1.45l.57.12a1.14,1.14,0,0,0,1.31-1.21.87.87,0,0,0-.4-.66,3,3,0,0,0-1-.36,6.66,6.66,0,0,0-3.75.25,7,7,0,0,0-4.68,5.44,5.43,5.43,0,0,0,.33,3.11,6.84,6.84,0,0,0,3.7,3.86,6,6,0,0,0,4.92,0,7,7,0,0,0,4.45-5.51A5.63,5.63,0,0,0,251.21,524.22Z" transform="translate(-49.24 -450.73)"/><path class="cls-1" d="M211.22,519.06a5.11,5.11,0,0,0-2.32-3.6,4.59,4.59,0,0,0-4.61-.33,5.19,5.19,0,0,0-3.18,4,4.56,4.56,0,0,0,.54,3,1.13,1.13,0,0,0,1.57.47.91.91,0,0,0,.49-1.14c-.07-.22-.17-.42-.23-.64a3,3,0,0,1,.53-2.89,2.83,2.83,0,1,1,4.17,3.82,2.89,2.89,0,0,1-2.53.83c-.23,0-.45-.09-.68-.12a1.12,1.12,0,0,0-1.15.59.72.72,0,0,0-.09.2.84.84,0,0,0,.45,1.14,5.36,5.36,0,0,0,1.11.3,5.16,5.16,0,0,0,5.52-2.83A4.87,4.87,0,0,0,211.22,519.06Z" transform="translate(-49.24 -450.73)"/><path class="cls-1" d="M229.34,528.43a6.55,6.55,0,0,0,3.29-1.79,6.42,6.42,0,0,0,1.85-2.95,4.75,4.75,0,0,0-1-4.47,1,1,0,0,0-1.13-.32,1.1,1.1,0,0,0-.78,1,.63.63,0,0,0,.06.33c.14.27.3.52.45.78a2.68,2.68,0,0,1,.24,2.19,4.48,4.48,0,0,1-3.67,3,3,3,0,0,1-2.17-.57c-.19-.13-.35-.3-.54-.42a.78.78,0,0,0-.77,0,1.25,1.25,0,0,0-.68,1.22.68.68,0,0,0,.11.31,3.16,3.16,0,0,0,.42.53A5.13,5.13,0,0,0,229.34,528.43Z" transform="translate(-49.24 -450.73)"/><path class="cls-1" d="M214.24,496.44a5.36,5.36,0,0,0-3.48,2,6.63,6.63,0,0,0-1.59,4.61,4.92,4.92,0,0,0,3.14,4.5,1,1,0,0,0,1.26-.48,1,1,0,0,0-.21-1.33c-.18-.13-.38-.25-.57-.37a2.86,2.86,0,0,1-1.38-2.24,4.41,4.41,0,0,1,1.22-3.63,3.12,3.12,0,0,1,1.12-.77,2.33,2.33,0,0,1,1.35-.19c.22,0,.45.09.68.12a1.14,1.14,0,0,0,1.23-.63,1.43,1.43,0,0,0,.12-.31.76.76,0,0,0-.33-.89,2.38,2.38,0,0,0-.51-.24A4.74,4.74,0,0,0,214.24,496.44Z" transform="translate(-49.24 -450.73)"/><path class="cls-1" d="M324.35,568.93c-.25-.17-.53-.37-.82-.55l-6.84-4.23-13.1-8L282,542.79,270.94,536,269,534.8a3.83,3.83,0,0,1-.46-.33,1.07,1.07,0,0,1,.2-1.74c.3-.16.63-.28.94-.41L282,527.27l44.18-18.08c.36-.15.71-.3,1.08-.42a1,1,0,0,1,1.06.22,1.07,1.07,0,0,1,.36,1.13.68.68,0,0,1-.25.37,4.11,4.11,0,0,1-.8.43c-1,.43-2.06.85-3.09,1.27l-16,6.53L308,519c-.73.27-.64.48-.1.91a7.74,7.74,0,0,0,10.38-.45,7.47,7.47,0,0,0,2.09-3.84,8.82,8.82,0,0,1,.2-.89,1.16,1.16,0,0,1,1.71-.55.81.81,0,0,1,.36.56,2.72,2.72,0,0,1,0,.57,10,10,0,0,1-16.86,5.63l-.4-.41a.58.58,0,0,0-.72-.17l-.64.25-31.2,12.76a7,7,0,0,0-.83.4s0,.14,0,.2a.49.49,0,0,0,.16.16l.58.37,15.54,9.57,13.28,8.21c.32.2.65.4,1,.58a1,1,0,0,0,.35.09c.27-.26.55-.52.81-.8a10.76,10.76,0,0,1,10.89-2.86,10.5,10.5,0,0,1,7.7,10.85,1,1,0,0,1-1,.89,1.08,1.08,0,0,1-1-.75,2.14,2.14,0,0,1-.08-.44c0-.27,0-.53,0-.8a8.2,8.2,0,0,0-2.84-5.88,8.71,8.71,0,0,0-10.85-.52c-.34.25-.66.52-1,.8a3.09,3.09,0,0,0-.37.43.37.37,0,0,0,.05.59l.67.43,2.45,1.49,14.46,8.93,2.24,1.38a2,2,0,0,0,.52.24.48.48,0,0,0,.32-.08.91.91,0,0,0,.24-.24c.8-1.06,1.68-2.06,2.53-3.08a17,17,0,0,0,1.57-2.24c.76-1.28,1.43-2.59,2.07-3.93s1.15-2.56,1.66-3.86a53.45,53.45,0,0,0,3.26-14.22c.1-1.25.16-2.49.19-3.74a45,45,0,0,0-.19-5.32q-.18-1.86-.48-3.72a53.6,53.6,0,0,0-3.09-11.25,16.42,16.42,0,0,0-1.2-2.32c-.54-.92-1.08-1.84-1.61-2.76a9.11,9.11,0,0,1-.83-1.86,9,9,0,0,1-.31-1.32,3.91,3.91,0,0,1,1.11-3.34,7.38,7.38,0,0,1,1.89-1.47,5.29,5.29,0,0,1,6.3.72,21.15,21.15,0,0,1,2.38,2.62,41,41,0,0,1,7.33,14.4,51.31,51.31,0,0,1,1.94,15.14,59,59,0,0,1-1.76,13.35,58,58,0,0,1-3.11,9.24q-.9,2.1-2,4.11a42.65,42.65,0,0,1-3.82,6.07l-.14.18a1.12,1.12,0,0,1-1.85-.12.69.69,0,0,1-.07-.75,7.45,7.45,0,0,1,.6-1q1.39-2,2.66-4.11a46.46,46.46,0,0,0,2.47-4.75,54.71,54.71,0,0,0,2.68-7.35,52.54,52.54,0,0,0,2-12.07,53.2,53.2,0,0,0-.74-11.41,48.83,48.83,0,0,0-2.34-8.64,72.31,72.31,0,0,0-3.38-7.58,21.46,21.46,0,0,0-1.95-3.21,8.49,8.49,0,0,0-2.44-2.22,6.58,6.58,0,0,0-1.47-.63,3.41,3.41,0,0,0-1.49-.1,2,2,0,0,0-1.29.67,2.32,2.32,0,0,0-.37.57,3.39,3.39,0,0,0-.27,1.66,6,6,0,0,0,.51,2.09c.28.58.54,1.17.87,1.73a31.82,31.82,0,0,1,2.1,4.65,54.22,54.22,0,0,1,3.32,24.42,51.45,51.45,0,0,1-1.18,7.27c-.38,1.58-.8,3.15-1.32,4.69q-.93,2.74-2.1,5.4c-.5,1.15-1.1,2.25-1.67,3.36a17.93,17.93,0,0,1-2.24,3.3c-.64.8-1.3,1.59-1.92,2.41a7.39,7.39,0,0,0-1.28,2.27,5.47,5.47,0,0,0-.11,3.13,3.42,3.42,0,0,0,.47,1,2.2,2.2,0,0,0,1.84,1,4,4,0,0,0,2.58-.84,14.81,14.81,0,0,0,2.19-2c.35-.4.69-.81,1.06-1.2a.94.94,0,0,1,1.42,0,1.1,1.1,0,0,1,.11,1.46c-.31.38-.65.74-1,1.1a24.76,24.76,0,0,1-2.76,2.56,6.79,6.79,0,0,1-2.22,1.18,4.26,4.26,0,0,1-3-.19,8.93,8.93,0,0,1-2.86-2.07,4,4,0,0,1-1-3.89c.07-.26.13-.51.19-.77C324.37,569.05,324.36,569,324.35,568.93Z" transform="translate(-49.24 -450.73)"/><path class="cls-1" d="M320.75,528.58a5.85,5.85,0,0,1,2.62,3.47,6.9,6.9,0,0,1-1.18,6.34,6.47,6.47,0,0,1-4.26,2.47,1.11,1.11,0,0,1-1.18-1.56.86.86,0,0,1,.3-.33,2,2,0,0,1,.42-.18c.22-.06.45-.11.67-.18a4.82,4.82,0,0,0,3.35-5,4,4,0,0,0-2.75-3.58,4.78,4.78,0,0,0-3.49,0,3.85,3.85,0,0,0-2.14,2,4.69,4.69,0,0,0-.37,3.52,4.41,4.41,0,0,0,1.36,2.19c.32.28.67.52,1,.78a.88.88,0,0,1,.31.91,1.1,1.1,0,0,1-1.6.77,6.38,6.38,0,0,1-3.34-4.78,6.59,6.59,0,0,1,.69-4.29,6.22,6.22,0,0,1,5.64-3.52,7.4,7.4,0,0,1,2.71.43A5.68,5.68,0,0,1,320.75,528.58Z" transform="translate(-49.24 -450.73)"/><path class="cls-1" d="M285.64,531.77a5.85,5.85,0,0,1,1.52-1.69,1.08,1.08,0,0,1,1.38.07,1,1,0,0,1,.13,1.42c-.17.2-.37.38-.56.57a4.78,4.78,0,0,0,.63,7.11A3.82,3.82,0,0,0,291,540a4.62,4.62,0,0,0,4.23-2.28,4.11,4.11,0,0,0,.36-3.5,4.5,4.5,0,0,0-3.51-3.24l-.56-.13a1.13,1.13,0,0,1-.66-1.65.85.85,0,0,1,.65-.42,2.7,2.7,0,0,1,1,.07,6.57,6.57,0,0,1,3.28,1.8,6.87,6.87,0,0,1,1.87,6.88,5.7,5.7,0,0,1-1.65,2.69,7.07,7.07,0,0,1-5,1.93,6,6,0,0,1-4.47-2,6.91,6.91,0,0,1-1.63-6.85A6,6,0,0,1,285.64,531.77Z" transform="translate(-49.24 -450.73)"/><path class="cls-1" d="M324,543.92a5.22,5.22,0,0,1,3.67-2.28,4.55,4.55,0,0,1,4.31,1.63,5.12,5.12,0,0,1,1.11,5,4.63,4.63,0,0,1-1.76,2.45,1.14,1.14,0,0,1-1.64-.23.92.92,0,0,1,.06-1.24c.16-.16.33-.31.49-.48a3,3,0,0,0,.77-2.83,2.7,2.7,0,0,0-3.39-2.09,2.77,2.77,0,0,0-2,3.79,2.83,2.83,0,0,0,1.92,1.81c.22.07.45.11.67.18a1.08,1.08,0,0,1,.78,1,1.76,1.76,0,0,1,0,.23.85.85,0,0,1-.91.83,5.34,5.34,0,0,1-1.13-.19,5.08,5.08,0,0,1-3.76-4.88A4.91,4.91,0,0,1,324,543.92Z" transform="translate(-49.24 -450.73)"/><path class="cls-1" d="M303.58,544.76a6.34,6.34,0,0,1-2.19-3,6.27,6.27,0,0,1-.39-3.45,4.78,4.78,0,0,1,2.81-3.63,1,1,0,0,1,1.16.18,1.11,1.11,0,0,1,.26,1.25.6.6,0,0,1-.2.27c-.24.18-.5.35-.75.52a2.71,2.71,0,0,0-1.16,1.88,4.37,4.37,0,0,0,2,4.28,3.06,3.06,0,0,0,2.21.4c.22,0,.44-.13.67-.15a.75.75,0,0,1,.71.28,1.24,1.24,0,0,1,.09,1.39.91.91,0,0,1-.24.24,3.83,3.83,0,0,1-.61.3A5.13,5.13,0,0,1,303.58,544.76Z" transform="translate(-49.24 -450.73)"/><path class="cls-1" d="M331.13,522.2a5.28,5.28,0,0,1,2.28,3.28,6.72,6.72,0,0,1-.57,4.84,5,5,0,0,1-4.79,2.75,1,1,0,0,1-.94-1,1,1,0,0,1,.77-1.11c.22,0,.45-.07.68-.1a2.9,2.9,0,0,0,2.22-1.44,4.43,4.43,0,0,0,.48-3.8,3.06,3.06,0,0,0-.69-1.16,2.33,2.33,0,0,0-1.13-.74c-.22-.06-.45-.11-.67-.18a1.11,1.11,0,0,1-.84-1.08c0-.11,0-.23,0-.34a.78.78,0,0,1,.69-.66,2.71,2.71,0,0,1,.57,0A4.51,4.51,0,0,1,331.13,522.2Z" transform="translate(-49.24 -450.73)"/><path class="cls-1" d="M281.74,468.67c-.05.3-.11.63-.18,1q-.87,3.89-1.75,7.75-1.68,7.42-3.37,14.83-2.78,12.24-5.54,24.46-1.42,6.26-2.86,12.51c-.17.73-.34,1.47-.5,2.21a3.6,3.6,0,0,0-.08.56,1.09,1.09,0,0,0,1.4,1.08,8.63,8.63,0,0,0,1-.37l12.33-5.1,44.13-18.23c.35-.14.71-.28,1.05-.45a1,1,0,0,0,.59-.91,1.08,1.08,0,0,0-.57-1,.73.73,0,0,0-.43-.09,5.24,5.24,0,0,0-.88.26L323,508.37,307,515l-.63.26c-.71.31-.8.11-.73-.57a7.73,7.73,0,0,1,11.87-5.72,7.71,7.71,0,0,0,.77.49,1.15,1.15,0,0,0,1.6-.82.74.74,0,0,0-.15-.64,2.23,2.23,0,0,0-.42-.39,10,10,0,0,0-14.75,3.16,9.46,9.46,0,0,0-1.16,4.69c0,.18,0,.37,0,.56a.57.57,0,0,1-.38.63l-.63.27-31.15,12.88a8.87,8.87,0,0,1-.87.29s-.13-.07-.16-.13a.4.4,0,0,1,0-.22c0-.22.09-.44.14-.66l4-17.6,3.39-15.06c.09-.37.17-.74.27-1.1a1.45,1.45,0,0,1,.18-.31c.38,0,.77,0,1.15,0a10.72,10.72,0,0,0,9.72-5.62,10.45,10.45,0,0,0-1.22-11.8,11.61,11.61,0,0,0-1.22-1.21,1.07,1.07,0,0,0-1.37.1,1,1,0,0,0-.19,1.25,2,2,0,0,0,.27.37c.18.2.37.38.56.57a8.17,8.17,0,0,1,2.26,6.12,8.5,8.5,0,0,1-7.25,8c-.42.06-.84.1-1.26.13a3.64,3.64,0,0,1-.57,0c-.28,0-.44-.21-.39-.45s.09-.52.15-.78c.21-.92.44-1.84.65-2.76l3.69-16.39c.19-.85.38-1.7.58-2.55a1.91,1.91,0,0,1,.19-.52.43.43,0,0,1,.28-.17.78.78,0,0,1,.34,0c1.33.19,2.68.27,4,.39a18,18,0,0,1,2.72.48c1.45.36,2.88.81,4.29,1.3s2.66,1,4,1.56a51.68,51.68,0,0,1,5.92,3,50.61,50.61,0,0,1,6.66,4.66c1,.8,1.92,1.63,2.84,2.49a45.27,45.27,0,0,1,3.72,3.87c.81,1,1.6,1.94,2.35,2.94A53.62,53.62,0,0,1,327,500a16.33,16.33,0,0,1,.84,2.47c.28,1,.57,2,.86,3.06a9.38,9.38,0,0,0,.77,1.89,8.66,8.66,0,0,0,.74,1.15,4,4,0,0,0,3.19,1.56,7.5,7.5,0,0,0,2.39-.29,5.15,5.15,0,0,0,3.9-4.91,20.56,20.56,0,0,0-.22-3.51,40.59,40.59,0,0,0-5.27-15.25,51.78,51.78,0,0,0-9.59-12A61,61,0,0,0,313.72,466a59.63,59.63,0,0,0-8.88-4.31c-1.43-.56-2.88-1.07-4.35-1.52a43.57,43.57,0,0,0-7.07-1.59l-.23,0A1.11,1.11,0,0,0,292,460a.73.73,0,0,0,.5.58,10.14,10.14,0,0,0,1.12.26c1.63.29,3.24.63,4.85,1a51.38,51.38,0,0,1,5.16,1.61,56.47,56.47,0,0,1,7.21,3.3,53.79,53.79,0,0,1,17.84,15.63,50.21,50.21,0,0,1,4.61,7.71,74.09,74.09,0,0,1,3.12,7.69,21.4,21.4,0,0,1,.94,3.62,8.38,8.38,0,0,1-.1,3.27,6.43,6.43,0,0,1-.58,1.47,3.33,3.33,0,0,1-1,1.11,2,2,0,0,1-1.4.43,2.29,2.29,0,0,1-.67-.14,3.4,3.4,0,0,1-1.39-1,5.86,5.86,0,0,1-1.15-1.82c-.22-.6-.47-1.2-.64-1.82a31.85,31.85,0,0,0-1.89-4.74,54,54,0,0,0-4.36-7.6,55.23,55.23,0,0,0-4.81-6.09,57.34,57.34,0,0,0-6.17-5.79,53.23,53.23,0,0,0-6.09-4.28c-1.41-.85-2.84-1.65-4.32-2.37q-2.64-1.27-5.38-2.33c-1.18-.45-2.4-.8-3.61-1.19a19.54,19.54,0,0,0-4-.75c-1-.11-2.07-.21-3.1-.34a8.27,8.27,0,0,1-2.54-.7,5.54,5.54,0,0,1-2.34-2.13,3.21,3.21,0,0,1-.42-1,2.17,2.17,0,0,1,.56-2,4.05,4.05,0,0,1,2.43-1.22,15.66,15.66,0,0,1,3-.12c.53,0,1.07.08,1.61.1a.92.92,0,0,0,1-1,1.11,1.11,0,0,0-1-1.09,14.72,14.72,0,0,0-1.49-.08,24.11,24.11,0,0,0-3.8.13,7,7,0,0,0-2.41.72,4.16,4.16,0,0,0-2,2.26,8.7,8.7,0,0,0-.52,3.46,4,4,0,0,0,2.12,3.43l.69.41S281.68,468.6,281.74,468.67Z" transform="translate(-49.24 -450.73)"/><path class="cls-1" d="M308.4,499.53a5.75,5.75,0,0,0-.66-4.27,7.12,7.12,0,0,0-5.42-3.63,6.5,6.5,0,0,0-4.78,1.25,1,1,0,0,0-.44,1,1.09,1.09,0,0,0,.74.93.86.86,0,0,0,.45,0,1.28,1.28,0,0,0,.42-.17c.21-.1.4-.23.6-.33a5,5,0,0,1,6,1.16,3.91,3.91,0,0,1,.65,4.44,4.64,4.64,0,0,1-2.43,2.46,4,4,0,0,1-2.93.12,4.88,4.88,0,0,1-2.81-2.21,4.5,4.5,0,0,1-.62-2.5c0-.41.1-.82.14-1.24a.91.91,0,0,0-.45-.86,1.1,1.1,0,0,0-1.67.58,6.26,6.26,0,0,0,1.1,5.69,6.86,6.86,0,0,0,3.6,2.54,6.31,6.31,0,0,0,6.51-1.47,7.24,7.24,0,0,0,1.59-2.21A5.29,5.29,0,0,0,308.4,499.53Z" transform="translate(-49.24 -450.73)"/><path class="cls-1" d="M281.44,521.87a6,6,0,0,0,2.28.12,1.05,1.05,0,0,0,.92-1,1,1,0,0,0-.93-1.09c-.27,0-.54,0-.81,0a4.84,4.84,0,0,1-4.7-5.44,3.69,3.69,0,0,1,1-2.11,4.65,4.65,0,0,1,4.62-1.36,4.24,4.24,0,0,1,2.79,2.21,4.4,4.4,0,0,1-.12,4.73c-.1.16-.21.32-.31.49a1.13,1.13,0,0,0,.74,1.61.87.87,0,0,0,.76-.15,2.91,2.91,0,0,0,.67-.77,6.33,6.33,0,0,0,1-3.56,6.94,6.94,0,0,0-3.66-6.15,5.81,5.81,0,0,0-3.1-.72,7,7,0,0,0-4.93,2.15,5.73,5.73,0,0,0-1.67,4.56,6.94,6.94,0,0,0,3.81,6A5.81,5.81,0,0,0,281.44,521.87Z" transform="translate(-49.24 -450.73)"/><path class="cls-1" d="M299.62,486.46a5.29,5.29,0,0,0,4.22-1,4.44,4.44,0,0,0,1.85-4.17,5.2,5.2,0,0,0-2.83-4.28,4.8,4.8,0,0,0-3-.49,1.12,1.12,0,0,0-1,1.31.94.94,0,0,0,.94.83c.23,0,.46,0,.69,0a3.09,3.09,0,0,1,2.59,1.45,2.63,2.63,0,0,1-.87,3.84,2.84,2.84,0,0,1-4.17-1.23,2.77,2.77,0,0,1,0-2.62c.11-.2.24-.39.34-.6a1.08,1.08,0,0,0-.18-1.26l-.17-.15a.84.84,0,0,0-1.23.05,5,5,0,0,0,2.78,8.29Z" transform="translate(-49.24 -450.73)"/><path class="cls-1" d="M284.63,500.18a6.29,6.29,0,0,0,.63,3.64,6.48,6.48,0,0,0,2.22,2.7,5,5,0,0,0,4.6.59,1,1,0,0,0,.69-.95,1.14,1.14,0,0,0-.72-1.06.67.67,0,0,0-.34-.05c-.3,0-.6.1-.9.16a2.79,2.79,0,0,1-2.18-.51,4.37,4.37,0,0,1-1.69-4.4,3,3,0,0,1,1.26-1.83c.19-.13.4-.22.58-.36a.71.71,0,0,0,.29-.7,1.26,1.26,0,0,0-.93-1,1,1,0,0,0-.34,0,3.31,3.31,0,0,0-.65.22A5,5,0,0,0,284.63,500.18Z" transform="translate(-49.24 -450.73)"/><path class="cls-1" d="M320.32,496.75a5.27,5.27,0,0,0-.78-3.9,6.89,6.89,0,0,0-3.9-3,5,5,0,0,0-5.35,1.42,1,1,0,0,0,0,1.34,1.07,1.07,0,0,0,1.35.24c.19-.12.37-.27.55-.41a3,3,0,0,1,2.6-.54,4.54,4.54,0,0,1,3.08,2.34,2.91,2.91,0,0,1,.37,1.29,2.27,2.27,0,0,1-.27,1.31l-.34.6a1.1,1.1,0,0,0,.2,1.35,1.43,1.43,0,0,0,.26.22.81.81,0,0,0,1,0,2.52,2.52,0,0,0,.4-.4A4.48,4.48,0,0,0,320.32,496.75Z" transform="translate(-49.24 -450.73)"/><path class="cls-1" d="M346.31,592.6c-.25-.15-.53-.3-.8-.48L339.07,588l-12.32-8-20.32-13.1c-3.47-2.23-6.93-4.48-10.39-6.72L294.2,559a4.31,4.31,0,0,0-.47-.26c-.62-.28-1.14.11-1,.77.06.31.16.62.25.92q1.72,6,3.44,11.93l12.33,42.67c.09.35.19.69.31,1a1.3,1.3,0,0,0,.72.8c.38.16.71.16.93-.1a.52.52,0,0,0,.1-.33,4.64,4.64,0,0,0-.16-.81c-.27-1-.57-2-.85-3q-2.24-7.71-4.46-15.42c-.06-.21-.11-.41-.18-.62-.21-.69,0-.69.54-.39,3.66,1.86,5.61,5.71,5.35,8.69a4.63,4.63,0,0,1-1.35,3.07,4.09,4.09,0,0,0-.46.47c-.32.4,0,1.24.58,1.6a.62.62,0,0,0,.55.09,1.27,1.27,0,0,0,.36-.2c3.42-2.77,2.69-9-1.63-13.24a11.83,11.83,0,0,0-3.89-2.59l-.48-.19a.74.74,0,0,1-.5-.53c-.06-.21-.13-.42-.19-.62l-8.71-30.13c-.08-.27-.13-.54-.19-.82,0,0,.07-.08.12-.08a.37.37,0,0,1,.19.07l.56.34,14.62,9.43,12.51,8,.91.61a1,1,0,0,1,.25.26c0,.31,0,.63-.08.94a12.54,12.54,0,0,0,4.07,10c3.05,3,7,4.29,10.08,3.11a6.46,6.46,0,0,0,1.11-.57c.3-.19.28-.72,0-1.17a1.18,1.18,0,0,0-1.05-.59,1.35,1.35,0,0,0-.33.09c-.17.08-.34.18-.52.26a6.24,6.24,0,0,1-5.34-.27,11.08,11.08,0,0,1-6.23-8.75c0-.36,0-.72,0-1.08a3.4,3.4,0,0,1,.08-.46c0-.22.2-.28.41-.16l.64.4,2.3,1.49L343,592.47l2.12,1.36a2.79,2.79,0,0,1,.43.34.5.5,0,0,1,.12.29.65.65,0,0,1,0,.28c-.26,1-.42,2.11-.62,3.17a12.66,12.66,0,0,1-.59,2.07c-.42,1.07-.9,2.08-1.41,3.08s-1,1.84-1.6,2.72a28.56,28.56,0,0,1-7.41,7.65q-1.12.78-2.31,1.47a24.58,24.58,0,0,1-3.54,1.71c-.87.33-1.76.63-2.66.9a34.81,34.81,0,0,1-9,1.4,13.27,13.27,0,0,1-2.15-.18l-2.65-.35a6.62,6.62,0,0,0-1.66,0,5.58,5.58,0,0,0-1,.2,2.26,2.26,0,0,0-1.55,2.08,6.61,6.61,0,0,0,.08,2.07,6.77,6.77,0,0,0,3.88,4.93,22.08,22.08,0,0,0,3,1,31.93,31.93,0,0,0,13.29,1,30.12,30.12,0,0,0,10.83-3.7,32.2,32.2,0,0,0,7.67-6.12,33.06,33.06,0,0,0,4.28-5.8,32.53,32.53,0,0,0,1.58-3,27.27,27.27,0,0,0,1.85-5.26,1.16,1.16,0,0,0,0-.18,1.37,1.37,0,0,0-1.08-1.49.43.43,0,0,0-.53.21,5.41,5.41,0,0,0-.29.83c-.36,1.24-.76,2.45-1.21,3.63a27.71,27.71,0,0,1-1.73,3.69,30.26,30.26,0,0,1-3.3,4.78,28,28,0,0,1-6.72,5.84,29.74,29.74,0,0,1-7.77,3.39,32.54,32.54,0,0,1-6.86,1.1,56.29,56.29,0,0,1-6.73-.12,19.35,19.35,0,0,1-3.13-.49,9.12,9.12,0,0,1-2.76-1.23,8,8,0,0,1-1.2-1,4.6,4.6,0,0,1-.88-1.18,2.09,2.09,0,0,1-.26-1.3,1.69,1.69,0,0,1,.16-.51,1.87,1.87,0,0,1,.93-.8,3.78,3.78,0,0,1,1.62-.31c.53,0,1.06,0,1.59.11a24.15,24.15,0,0,0,4.15.1,35.2,35.2,0,0,0,6.74-.94,31.58,31.58,0,0,0,5.49-1.83,29.54,29.54,0,0,0,5.34-3,27.71,27.71,0,0,0,4.06-3.52,29,29,0,0,0,2.31-2.73,36.64,36.64,0,0,0,2.35-3.61c.47-.82.85-1.7,1.26-2.55a12.17,12.17,0,0,0,.91-3c.17-.81.33-1.62.51-2.42a4.73,4.73,0,0,1,.78-1.85,3,3,0,0,1,2-1.18,2.39,2.39,0,0,1,.92,0,2.65,2.65,0,0,1,1.65,1.16,4.8,4.8,0,0,1,.86,2.41,13,13,0,0,1-.11,2.51c-.07.43-.14.85-.2,1.29a1.16,1.16,0,0,0,.78,1.16c.48.18.91,0,1-.41a11.75,11.75,0,0,0,.17-1.21,18.35,18.35,0,0,0,.16-3.17,7,7,0,0,0-.44-2.23,5.64,5.64,0,0,0-1.78-2.43,10,10,0,0,0-2.89-1.63,2.61,2.61,0,0,0-3.05.54l-.4.42S346.37,592.58,346.31,592.6Z" transform="translate(-49.24 -450.73)"/><path class="cls-1" d="M318.29,603.77a5.35,5.35,0,0,0,3.67.94,3.89,3.89,0,0,0,3.45-3.19,6.42,6.42,0,0,0-.72-4.37,1.31,1.31,0,0,0-.81-.71.67.67,0,0,0-.84.29.6.6,0,0,0,0,.36,1.67,1.67,0,0,0,.11.41c.08.2.17.41.24.61.79,2.15,0,4-1.4,4.51a3.62,3.62,0,0,1-3.81-1,6.22,6.22,0,0,1-1.91-2.86,3.25,3.25,0,0,1,.1-2.45,2.62,2.62,0,0,1,2.08-1.54,3.65,3.65,0,0,1,2.15.36c.35.16.7.36,1,.54a.6.6,0,0,0,.76-.07c.39-.37.21-1.17-.37-1.58a5.59,5.59,0,0,0-4.9-1.07,3.65,3.65,0,0,0-2.4,2.07,6,6,0,0,0,.79,5.87,10,10,0,0,0,1.75,2.08A7.27,7.27,0,0,0,318.29,603.77Z" transform="translate(-49.24 -450.73)"/><path class="cls-1" d="M301.29,573.78a4.42,4.42,0,0,0-.27,1.84,1.37,1.37,0,0,0,.79,1.11c.49.23.91.07,1-.39,0-.21,0-.44.07-.66.27-2.42,2.7-3.24,4.93-2a5,5,0,0,1,1.72,1.58,4.7,4.7,0,0,1,.83,4.28,2.32,2.32,0,0,1-2.07,1.52,4.66,4.66,0,0,1-4-1.76l-.39-.41c-.51-.51-1.21-.49-1.42,0a.8.8,0,0,0,.08.68,3.68,3.68,0,0,0,.6.82,7.84,7.84,0,0,0,2.94,2.06c2.29.86,4.14.63,5.46-.87a3.66,3.66,0,0,0,.84-2.29,7.88,7.88,0,0,0-1.48-4.81,7.45,7.45,0,0,0-3.74-3c-2.25-.78-4-.43-5.31,1.06A3.26,3.26,0,0,0,301.29,573.78Z" transform="translate(-49.24 -450.73)"/><path class="cls-1" d="M330,601.1a5,5,0,0,0,.52,3.81,5.79,5.79,0,0,0,3.4,3,3.3,3.3,0,0,0,3.83-.83,3.24,3.24,0,0,0,.62-2.32,1.43,1.43,0,0,0-1-1.26.55.55,0,0,0-.77.48c0,.19,0,.39,0,.57a1.72,1.72,0,0,1-1.41,1.63,3,3,0,0,1-3.19-2.06c-.76-1.79.05-2.92,1.34-3a2.93,2.93,0,0,1,2.21.95c.17.16.32.33.48.49a1,1,0,0,0,1.08.29.42.42,0,0,0,.14-.09c.31-.2.34-.63.05-1a7.64,7.64,0,0,0-.73-.87c-1.89-1.84-3.94-2.06-5.2-1.38A2.76,2.76,0,0,0,330,601.1Z" transform="translate(-49.24 -450.73)"/><path class="cls-1" d="M319.42,584a5.73,5.73,0,0,0-3.13-.75,3.66,3.66,0,0,0-2.43.89,3.44,3.44,0,0,0-.83,3.58,1.28,1.28,0,0,0,.75.89c.42.15.76.1,1-.23a.37.37,0,0,0,.07-.25c0-.27,0-.54-.07-.8a1.79,1.79,0,0,1,.58-1.62,3.33,3.33,0,0,1,3.85.15,4,4,0,0,1,1.46,1.68c.09.2.16.4.26.6a1.06,1.06,0,0,0,.58.49.74.74,0,0,0,.94-.42.52.52,0,0,0,0-.28,2.69,2.69,0,0,0-.14-.61A6.74,6.74,0,0,0,319.42,584Z" transform="translate(-49.24 -450.73)"/><path class="cls-1" d="M319.81,614.54a4.58,4.58,0,0,0,3.36.72A3.7,3.7,0,0,0,326,613.1a5,5,0,0,0-.83-4.9,1,1,0,0,0-1.14-.44.74.74,0,0,0-.3,1,6.63,6.63,0,0,0,.31.59,2.82,2.82,0,0,1,.28,2.33,2.54,2.54,0,0,1-3.32,1.57,2.71,2.71,0,0,1-1.1-.67l-.47-.49a1,1,0,0,0-1.16-.31.66.66,0,0,0-.2.14.62.62,0,0,0-.06.79,3.46,3.46,0,0,0,.31.47A6.08,6.08,0,0,0,319.81,614.54Z" transform="translate(-49.24 -450.73)"/><path class="cls-1" d="M909.77,504.55h119.12a2.06,2.06,0,0,0,2.06-2.25,54.89,54.89,0,0,0-1.8-10,2.07,2.07,0,1,0-4,1.1,52.81,52.81,0,0,1,1.42,7H912.08a51.21,51.21,0,0,1,51.08-44.69H975.5a51.71,51.71,0,0,1,44.62,25.74,2.07,2.07,0,1,0,3.59-2.07,55.88,55.88,0,0,0-48.21-27.81H963.16a55.67,55.67,0,0,0-55.45,50.72,2.06,2.06,0,0,0,2.06,2.25Z" transform="translate(-49.24 -450.73)"/><path class="cls-1" d="M1022.62,486.37c.3.67.59,1.36.86,2.06a2.08,2.08,0,0,0,1.93,1.31,2,2,0,0,0,.76-.14,2.08,2.08,0,0,0,1.17-2.69q-.45-1.12-.93-2.22a2.07,2.07,0,0,0-3.79,1.68Z" transform="translate(-49.24 -450.73)"/><path class="cls-1" d="M1031,529.89a9.86,9.86,0,0,0-9.84-9.84h-5.31a2.07,2.07,0,0,0,0,4.14h5.31a5.7,5.7,0,0,1,5.69,5.7v1.58a5.7,5.7,0,0,1-5.69,5.7H926.09a2.07,2.07,0,0,0,0,4.14h95.07a9.85,9.85,0,0,0,9.84-9.84Z" transform="translate(-49.24 -450.73)"/><path class="cls-1" d="M1010.15,524.19a2.07,2.07,0,0,0,0-4.14h-.2a2.07,2.07,0,1,0,0,4.14Z" transform="translate(-49.24 -450.73)"/><path class="cls-1" d="M917.5,541.31h3.09a2.07,2.07,0,0,0,0-4.14H917.5a5.7,5.7,0,0,1-5.7-5.7v-1.58a5.71,5.71,0,0,1,5.7-5.7h86.83a2.07,2.07,0,0,0,0-4.14H917.5a9.86,9.86,0,0,0-9.84,9.84v1.58A9.85,9.85,0,0,0,917.5,541.31Z" transform="translate(-49.24 -450.73)"/><path class="cls-1" d="M909.77,511.5a12.28,12.28,0,0,1,7.43,2.29,17.34,17.34,0,0,0,19.17,0,13.2,13.2,0,0,1,14.86,0,17.34,17.34,0,0,0,19.17,0,13.21,13.21,0,0,1,14.87,0,17.34,17.34,0,0,0,19.17,0,13.2,13.2,0,0,1,14.86,0,16.27,16.27,0,0,0,9.59,2.89,2.07,2.07,0,0,0,0-4.14,12.26,12.26,0,0,1-7.43-2.29,17.36,17.36,0,0,0-19.18,0,13.2,13.2,0,0,1-14.86,0,17.34,17.34,0,0,0-19.17,0,13.2,13.2,0,0,1-14.86,0,17.34,17.34,0,0,0-19.17,0,13.21,13.21,0,0,1-14.87,0,16.31,16.31,0,0,0-9.58-2.89,2.07,2.07,0,1,0,0,4.14Z" transform="translate(-49.24 -450.73)"/><path class="cls-1" d="M1021.46,546.45a17.36,17.36,0,0,0-19.18,0,13.2,13.2,0,0,1-14.86,0,17.34,17.34,0,0,0-19.17,0,13.2,13.2,0,0,1-14.86,0,17.34,17.34,0,0,0-19.17,0,13.21,13.21,0,0,1-14.87,0,16.31,16.31,0,0,0-9.58-2.89,2.07,2.07,0,1,0,0,4.14A12.28,12.28,0,0,1,917.2,550a17.34,17.34,0,0,0,19.17,0,13.2,13.2,0,0,1,14.86,0,17.34,17.34,0,0,0,19.17,0,13.21,13.21,0,0,1,14.87,0,17.34,17.34,0,0,0,19.17,0,13.2,13.2,0,0,1,14.86,0,16.27,16.27,0,0,0,9.59,2.89,2.07,2.07,0,1,0,0-4.14A12.26,12.26,0,0,1,1021.46,546.45Z" transform="translate(-49.24 -450.73)"/><circle class="cls-1" cx="901.26" cy="16.47" r="2.07"/><circle class="cls-1" cx="889.61" cy="29.4" r="2.07"/><circle class="cls-1" cx="909.93" cy="29.4" r="2.07"/><circle class="cls-1" cx="930.25" cy="29.4" r="2.07"/><circle class="cls-1" cx="950.58" cy="29.4" r="2.07"/><circle class="cls-1" cx="920.68" cy="16.47" r="2.07"/><circle class="cls-1" cx="940.1" cy="16.47" r="2.07"/><path class="cls-1" d="M934.14,596.9h0Z" transform="translate(-49.24 -450.73)"/><path class="cls-1" d="M938.82,600.65l-.7-.46a2.07,2.07,0,0,0-2.26,3.48l.71.45a2.07,2.07,0,0,0,2.25-3.47Z" transform="translate(-49.24 -450.73)"/><path class="cls-1" d="M1031,557.13a29.57,29.57,0,0,1-1,5.3,61.47,61.47,0,0,1-88.27,44.82l-.36-.19a2.34,2.34,0,0,1,1.23-4.34,2.15,2.15,0,0,1,.73.12l.63.32a56.87,56.87,0,0,0,80.91-38.71,54.53,54.53,0,0,0,.91-5.46H912.88a51.82,51.82,0,0,0,.92,5.46A56,56,0,0,0,918,576.81a57.22,57.22,0,0,0,15.73,19.79l.33.27,0,0h0a2.3,2.3,0,0,1,.68,1.65,2.37,2.37,0,0,1-2.37,2.37,2.74,2.74,0,0,1-1.86-.87,61.56,61.56,0,0,1-21.91-37.59,29.32,29.32,0,0,1-1-5.34,2.1,2.1,0,0,1,.29-1.3,1.7,1.7,0,0,1,.23-.3,2,2,0,0,1,1.54-.68H1029a2.05,2.05,0,0,1,1.77,1A2,2,0,0,1,1031,557.13Z" transform="translate(-49.24 -450.73)"/><path class="cls-1" d="M49.24,586.13,63.3,575.78c7.33,13.87,23.9,23.11,41.08,23.11,21.19,0,38.47-11.45,38.47-27.42,0-18.18-23.2-26.92-43.89-34.76C79.07,529,56.87,519.24,56.87,494.23s22.4-43.5,50.82-43.5c24,0,40.38,13.16,46.41,29.13l-13.76,9.24c-5.23-12.15-18.28-20.39-32.85-20.39-17.37,0-32.24,11.45-32.24,25.92,0,15.67,17.78,21.39,38.67,29.43,24.31,9.84,47.31,21.09,47.31,47.1,0,27.93-25.81,46.11-56.95,46.11C77.66,617.27,57,603.41,49.24,586.13Z" transform="translate(-49.24 -450.73)"/><path class="cls-1" d="M381.75,552.18v-99h18.38v98.94c0,27.22,17.67,47,41.58,47s41.58-19.89,41.58-47V453.14h18.38v99c0,37.77-25.51,65.39-60,65.39S381.75,590,381.75,552.18Z" transform="translate(-49.24 -450.73)"/><path class="cls-1" d="M541.52,453.14H559.8V615.06H541.52Z" transform="translate(-49.24 -450.73)"/><path class="cls-1" d="M591.11,586.13l14.07-10.35c7.33,13.87,23.9,23.11,41.08,23.11,21.19,0,38.47-11.45,38.47-27.42,0-18.18-23.21-26.92-43.9-34.76-19.89-7.73-42.08-17.47-42.08-42.48s22.4-43.5,50.82-43.5c24,0,40.38,13.16,46.41,29.13l-13.77,9.24C677,477,663.93,468.71,649.37,468.71c-17.38,0-32.24,11.45-32.24,25.92,0,15.67,17.78,21.39,38.67,29.43,24.31,9.84,47.31,21.09,47.31,47.1,0,27.93-25.82,46.11-57,46.11C619.54,617.27,598.85,603.41,591.11,586.13Z" transform="translate(-49.24 -450.73)"/><path class="cls-1" d="M734.42,453.14H752.7V615.06H734.42Z" transform="translate(-49.24 -450.73)"/><path class="cls-1" d="M894.6,471.22H847.69V615.06H829.41V471.22H782.3V453.14H894.6Z" transform="translate(-49.24 -450.73)"/></svg>